# xmcd CD database file
#
# Track frame offsets:
#	150
#	24105
#	43247
#	56380
#	75937
#	105590
#	125222
#	136530
#	155580
#	181160
#	201195
#	220880
#	226997
#	239447
#	264217
#
# Disc length: 3765 seconds
#
# Revision: 0
# Processed by: cddbd v1.5.2PL0 Copyright (c) Steve Scherf et al.
# Submitted via: CDex 1.51
#
DISCID=bd0eb30f
DTITLE=Thief - Sunchild
DYEAR=2006
DGENRE=New Age
TTITLE0=Sunchild 01
TTITLE1=Atlantic 02
TTITLE2=Hold on, Hold on 03
TTITLE3=If There Was a Love 04
TTITLE4=Clouds 05
TTITLE5=Down, Down 06
TTITLE6=Does it Make Any Sense 07
TTITLE7=Somewhere 08
TTITLE8=I Can't Remember 09
TTITLE9=(Like) Leaves 10
TTITLE10=Home 11
TTITLE11=Sunchild (Reprise) 12
TTITLE12=Jazzanova Feat 13
TTITLE13=Hold on, Hold on (Extended) 14
TTITLE14=I Can't Remember (Short) 15
EXTD=YEAR: 2006
EXTT0=
EXTT1=
EXTT2=
EXTT3=
EXTT4=
EXTT5=
EXTT6=
EXTT7=
EXTT8=
EXTT9=
EXTT10=
EXTT11=
EXTT12=
EXTT13=
EXTT14=
PLAYORDER=
